<svg id="mermaid-1638268104447" width="803.671875" xmlns="http://www.w3.org/2000/svg" xmlns:xlink="http://www.w3.org/1999/xlink" height="510" viewBox="0 0 803.671875 510"><style>#mermaid-1638268104447{font-family:"trebuchet ms",verdana,arial,sans-serif;font-size:16px;fill:#ccc;}#mermaid-1638268104447 .error-icon{fill:#a44141;}#mermaid-1638268104447 .error-text{fill:#ddd;stroke:#ddd;}#mermaid-1638268104447 .edge-thickness-normal{stroke-width:2px;}#mermaid-1638268104447 .edge-thickness-thick{stroke-width:3.5px;}#mermaid-1638268104447 .edge-pattern-solid{stroke-dasharray:0;}#mermaid-1638268104447 .edge-pattern-dashed{stroke-dasharray:3;}#mermaid-1638268104447 .edge-pattern-dotted{stroke-dasharray:2;}#mermaid-1638268104447 .marker{fill:lightgrey;stroke:lightgrey;}#mermaid-1638268104447 .marker.cross{stroke:lightgrey;}#mermaid-1638268104447 svg{font-family:"trebuchet ms",verdana,arial,sans-serif;font-size:16px;}#mermaid-1638268104447 .label{font-family:"trebuchet ms",verdana,arial,sans-serif;color:#ccc;}#mermaid-1638268104447 .cluster-label text{fill:#F9FFFE;}#mermaid-1638268104447 .cluster-label span{color:#F9FFFE;}#mermaid-1638268104447 .label text,#mermaid-1638268104447 span{fill:#ccc;color:#ccc;}#mermaid-1638268104447 .node rect,#mermaid-1638268104447 .node circle,#mermaid-1638268104447 .node ellipse,#mermaid-1638268104447 .node polygon,#mermaid-1638268104447 .node path{fill:#1f2020;stroke:#81B1DB;stroke-width:1px;}#mermaid-1638268104447 .node .label{text-align:center;}#mermaid-1638268104447 .node.clickable{cursor:pointer;}#mermaid-1638268104447 .arrowheadPath{fill:lightgrey;}#mermaid-1638268104447 .edgePath .path{stroke:lightgrey;stroke-width:1.5px;}#mermaid-1638268104447 .flowchart-link{stroke:lightgrey;fill:none;}#mermaid-1638268104447 .edgeLabel{background-color:hsl(0,0%,34.4117647059%);text-align:center;}#mermaid-1638268104447 .edgeLabel rect{opacity:0.5;background-color:hsl(0,0%,34.4117647059%);fill:hsl(0,0%,34.4117647059%);}#mermaid-1638268104447 .cluster rect{fill:hsl(180,1.5873015873%,28.3529411765%);stroke:rgba(255,255,255,0.25);stroke-width:1px;}#mermaid-1638268104447 .cluster text{fill:#F9FFFE;}#mermaid-1638268104447 .cluster span{color:#F9FFFE;}#mermaid-1638268104447 div.mermaidTooltip{position:absolute;text-align:center;max-width:200px;padding:2px;font-family:"trebuchet ms",verdana,arial,sans-serif;font-size:12px;background:hsl(20,1.5873015873%,12.3529411765%);border:1px solid rgba(255,255,255,0.25);border-radius:2px;pointer-events:none;z-index:100;}#mermaid-1638268104447:root{--mermaid-font-family:"trebuchet ms",verdana,arial,sans-serif;}</style><g><g class="output"><g class="clusters"></g><g class="edgePaths"><g class="edgePath LS-main1.html LE-a1.js" id="L-main1.html-a1.js" style="opacity: 1;"><path class="path" d="M69.68249128919861,196L80.6729094076655,175.33333333333334C91.66332752613239,154.66666666666666,113.6441637630662,113.33333333333333,132.76869646486645,92.66666666666667C151.89322916666666,72,168.16145833333334,72,176.29557291666666,72L184.4296875,72" marker-end="url(#arrowhead44)" style="fill:none"></path><defs><marker id="arrowhead44" viewBox="0 0 10 10" refX="9" refY="5" markerUnits="strokeWidth" markerWidth="8" markerHeight="6" orient="auto"><path d="M 0 0 L 10 5 L 0 10 z" class="arrowheadPath" style="stroke-width: 1; stroke-dasharray: 1, 0;"></path></marker></defs></g><g class="edgePath LS-main1.html LE-a.png" id="L-main1.html-a.png" style="opacity: 1;"><path class="path" d="M110.625,215.5L114.79166666666667,215.5C118.95833333333333,215.5,127.29166666666667,215.5,139.1796875,215.5C151.06770833333334,215.5,166.51041666666666,215.5,174.23177083333334,215.5L181.953125,215.5" marker-end="url(#arrowhead45)" style="fill:none"></path><defs><marker id="arrowhead45" viewBox="0 0 10 10" refX="9" refY="5" markerUnits="strokeWidth" markerWidth="8" markerHeight="6" orient="auto"><path d="M 0 0 L 10 5 L 0 10 z" class="arrowheadPath" style="stroke-width: 1; stroke-dasharray: 1, 0;"></path></marker></defs></g><g class="edgePath LS-main1.html LE-a.css" id="L-main1.html-a.css" style="opacity: 1;"><path class="path" d="M76.03265449438203,235L85.9647120786517,246.58333333333334C95.89676966292136,258.1666666666667,115.76088483146067,281.3333333333333,133.81533824906367,292.9166666666667C151.86979166666666,304.5,168.11458333333334,304.5,176.23697916666666,304.5L184.359375,304.5" marker-end="url(#arrowhead46)" style="fill:none"></path><defs><marker id="arrowhead46" viewBox="0 0 10 10" refX="9" refY="5" markerUnits="strokeWidth" markerWidth="8" markerHeight="6" orient="auto"><path d="M 0 0 L 10 5 L 0 10 z" class="arrowheadPath" style="stroke-width: 1; stroke-dasharray: 1, 0;"></path></marker></defs></g><g class="edgePath LS-a1.js LE-a2.js" id="L-a1.js-a2.js" style="opacity: 1;"><path class="path" d="M239.4453125,55.95940827190827L247.57942708333334,51.21617355992356C255.71354166666666,46.47293884793885,271.9817708333333,36.986469423969424,284.72265625,32.24323471198471C297.4635416666667,27.5,306.6770833333333,27.5,311.2838541666667,27.5L315.890625,27.5" marker-end="url(#arrowhead47)" style="fill:none"></path><defs><marker id="arrowhead47" viewBox="0 0 10 10" refX="9" refY="5" markerUnits="strokeWidth" markerWidth="8" markerHeight="6" orient="auto"><path d="M 0 0 L 10 5 L 0 10 z" class="arrowheadPath" style="stroke-width: 1; stroke-dasharray: 1, 0;"></path></marker></defs></g><g class="edgePath LS-a1.js LE-a3.js" id="L-a1.js-a3.js" style="opacity: 1;"><path class="path" d="M239.4453125,88.04059172809173L247.57942708333334,92.78382644007644C255.71354166666666,97.52706115206115,271.9817708333333,107.01353057603058,284.72265625,111.75676528801529C297.4635416666667,116.5,306.6770833333333,116.5,311.2838541666667,116.5L315.890625,116.5" marker-end="url(#arrowhead48)" style="fill:none"></path><defs><marker id="arrowhead48" viewBox="0 0 10 10" refX="9" refY="5" markerUnits="strokeWidth" markerWidth="8" markerHeight="6" orient="auto"><path d="M 0 0 L 10 5 L 0 10 z" class="arrowheadPath" style="stroke-width: 1; stroke-dasharray: 1, 0;"></path></marker></defs></g><g class="edgePath LS-a3.js LE-b1.js" id="L-a3.js-b1.js" style="opacity: 1;"><path class="path" d="M370.90625,116.5L375.5130208333333,116.5C380.1197916666667,116.5,389.3333333333333,116.5,398.1067708333333,116.5C406.8802083333333,116.5,415.2135416666667,116.5,419.3802083333333,116.5L423.546875,116.5" marker-end="url(#arrowhead49)" style="fill:none"></path><defs><marker id="arrowhead49" viewBox="0 0 10 10" refX="9" refY="5" markerUnits="strokeWidth" markerWidth="8" markerHeight="6" orient="auto"><path d="M 0 0 L 10 5 L 0 10 z" class="arrowheadPath" style="stroke-width: 1; stroke-dasharray: 1, 0;"></path></marker></defs></g><g class="edgePath LS-b1.js LE-b2.js" id="L-b1.js-b2.js" style="opacity: 1;"><path class="path" d="M474.4345154494382,97L479.3751170411985,92.83333333333333C484.3157186329588,88.66666666666667,494.19692181647935,80.33333333333333,503.30419007490633,76.16666666666667C512.4114583333334,72,520.7447916666666,72,524.9114583333334,72L529.078125,72" marker-end="url(#arrowhead50)" style="fill:none"></path><defs><marker id="arrowhead50" viewBox="0 0 10 10" refX="9" refY="5" markerUnits="strokeWidth" markerWidth="8" markerHeight="6" orient="auto"><path d="M 0 0 L 10 5 L 0 10 z" class="arrowheadPath" style="stroke-width: 1; stroke-dasharray: 1, 0;"></path></marker></defs></g><g class="edgePath LS-b1.js LE-b3.js" id="L-b1.js-b3.js" style="opacity: 1;"><path class="path" d="M474.4345154494382,136L479.3751170411985,140.16666666666666C484.3157186329588,144.33333333333334,494.19692181647935,152.66666666666666,503.30419007490633,156.83333333333334C512.4114583333334,161,520.7447916666666,161,524.9114583333334,161L529.078125,161" marker-end="url(#arrowhead51)" style="fill:none"></path><defs><marker id="arrowhead51" viewBox="0 0 10 10" refX="9" refY="5" markerUnits="strokeWidth" markerWidth="8" markerHeight="6" orient="auto"><path d="M 0 0 L 10 5 L 0 10 z" class="arrowheadPath" style="stroke-width: 1; stroke-dasharray: 1, 0;"></path></marker></defs></g><g class="edgePath LS-a3.js LE-c1.js" id="L-a3.js-c1.js" style="opacity: 1;"><path class="path" d="M351.453827247191,136L359.3026685393258,155C367.1515098314606,174,382.84919241573033,212,395.6386352996255,235.16666666666666C408.42807818352065,258.3333333333333,418.3092813670412,266.6666666666667,423.2498829588015,270.8333333333333L428.1904845505618,275" marker-end="url(#arrowhead52)" style="fill:none"></path><defs><marker id="arrowhead52" viewBox="0 0 10 10" refX="9" refY="5" markerUnits="strokeWidth" markerWidth="8" markerHeight="6" orient="auto"><path d="M 0 0 L 10 5 L 0 10 z" class="arrowheadPath" style="stroke-width: 1; stroke-dasharray: 1, 0;"></path></marker></defs></g><g class="edgePath LS-c1.js LE-c2.js" id="L-c1.js-c2.js" style="opacity: 1;"><path class="path" d="M474.4345154494382,275L479.3751170411985,270.8333333333333C484.3157186329588,266.6666666666667,494.19692181647935,258.3333333333333,503.3875234082397,254.16666666666666C512.578125,250,521.078125,250,525.328125,250L529.578125,250" marker-end="url(#arrowhead53)" style="fill:none"></path><defs><marker id="arrowhead53" viewBox="0 0 10 10" refX="9" refY="5" markerUnits="strokeWidth" markerWidth="8" markerHeight="6" orient="auto"><path d="M 0 0 L 10 5 L 0 10 z" class="arrowheadPath" style="stroke-width: 1; stroke-dasharray: 1, 0;"></path></marker></defs></g><g class="edgePath LS-c1.js LE-c3.js" id="L-c1.js-c3.js" style="opacity: 1;"><path class="path" d="M474.4345154494382,314L479.3751170411985,318.1666666666667C484.3157186329588,322.3333333333333,494.19692181647935,330.6666666666667,503.3875234082397,334.8333333333333C512.578125,339,521.078125,339,525.328125,339L529.578125,339" marker-end="url(#arrowhead54)" style="fill:none"></path><defs><marker id="arrowhead54" viewBox="0 0 10 10" refX="9" refY="5" markerUnits="strokeWidth" markerWidth="8" markerHeight="6" orient="auto"><path d="M 0 0 L 10 5 L 0 10 z" class="arrowheadPath" style="stroke-width: 1; stroke-dasharray: 1, 0;"></path></marker></defs></g><g class="edgePath LS-c2.js LE-d1.js" id="L-c2.js-d1.js" style="opacity: 1;"><path class="path" d="M584.109375,250L588.359375,250C592.609375,250,601.109375,250,609.5260416666666,250C617.9427083333334,250,626.2760416666666,250,630.4427083333334,250L634.609375,250" marker-end="url(#arrowhead55)" style="fill:none"></path><defs><marker id="arrowhead55" viewBox="0 0 10 10" refX="9" refY="5" markerUnits="strokeWidth" markerWidth="8" markerHeight="6" orient="auto"><path d="M 0 0 L 10 5 L 0 10 z" class="arrowheadPath" style="stroke-width: 1; stroke-dasharray: 1, 0;"></path></marker></defs></g><g class="edgePath LS-d1.js LE-d2.js" id="L-d1.js-d2.js" style="opacity: 1;"><path class="path" d="M685.4970154494382,230.5L690.4376170411985,226.33333333333334C695.3782186329587,222.16666666666666,705.2594218164794,213.83333333333334,714.3666900749064,209.66666666666666C723.4739583333334,205.5,731.8072916666666,205.5,735.9739583333334,205.5L740.140625,205.5" marker-end="url(#arrowhead56)" style="fill:none"></path><defs><marker id="arrowhead56" viewBox="0 0 10 10" refX="9" refY="5" markerUnits="strokeWidth" markerWidth="8" markerHeight="6" orient="auto"><path d="M 0 0 L 10 5 L 0 10 z" class="arrowheadPath" style="stroke-width: 1; stroke-dasharray: 1, 0;"></path></marker></defs></g><g class="edgePath LS-d1.js LE-d3.js" id="L-d1.js-d3.js" style="opacity: 1;"><path class="path" d="M685.4970154494382,269.5L690.4376170411985,273.6666666666667C695.3782186329587,277.8333333333333,705.2594218164794,286.1666666666667,714.3666900749064,290.3333333333333C723.4739583333334,294.5,731.8072916666666,294.5,735.9739583333334,294.5L740.140625,294.5" marker-end="url(#arrowhead57)" style="fill:none"></path><defs><marker id="arrowhead57" viewBox="0 0 10 10" refX="9" refY="5" markerUnits="strokeWidth" markerWidth="8" markerHeight="6" orient="auto"><path d="M 0 0 L 10 5 L 0 10 z" class="arrowheadPath" style="stroke-width: 1; stroke-dasharray: 1, 0;"></path></marker></defs></g><g class="edgePath LS-main2.html LE-e1.js" id="L-main2.html-e1.js" style="opacity: 1;"><path class="path" d="M228.65765449438203,374L238.5897120786517,362.4166666666667C248.52176966292134,350.8333333333333,268.3858848314607,327.6666666666667,282.8973694990637,316.0833333333333C297.4088541666667,304.5,306.5677083333333,304.5,311.1471354166667,304.5L315.7265625,304.5" marker-end="url(#arrowhead58)" style="fill:none"></path><defs><marker id="arrowhead58" viewBox="0 0 10 10" refX="9" refY="5" markerUnits="strokeWidth" markerWidth="8" markerHeight="6" orient="auto"><path d="M 0 0 L 10 5 L 0 10 z" class="arrowheadPath" style="stroke-width: 1; stroke-dasharray: 1, 0;"></path></marker></defs></g><g class="edgePath LS-main2.html LE-e.css" id="L-main2.html-e.css" style="opacity: 1;"><path class="path" d="M263.25,393.5L267.4166666666667,393.5C271.5833333333333,393.5,279.9166666666667,393.5,288.6510416666667,393.5C297.3854166666667,393.5,306.5208333333333,393.5,311.0885416666667,393.5L315.65625,393.5" marker-end="url(#arrowhead59)" style="fill:none"></path><defs><marker id="arrowhead59" viewBox="0 0 10 10" refX="9" refY="5" markerUnits="strokeWidth" markerWidth="8" markerHeight="6" orient="auto"><path d="M 0 0 L 10 5 L 0 10 z" class="arrowheadPath" style="stroke-width: 1; stroke-dasharray: 1, 0;"></path></marker></defs></g><g class="edgePath LS-main2.html LE-e.png" id="L-main2.html-e.png" style="opacity: 1;"><path class="path" d="M228.65765449438203,413L238.5897120786517,424.5833333333333C248.52176966292134,436.1666666666667,268.3858848314607,459.3333333333333,282.484609082397,470.9166666666667C296.5833333333333,482.5,304.9166666666667,482.5,309.0833333333333,482.5L313.25,482.5" marker-end="url(#arrowhead60)" style="fill:none"></path><defs><marker id="arrowhead60" viewBox="0 0 10 10" refX="9" refY="5" markerUnits="strokeWidth" markerWidth="8" markerHeight="6" orient="auto"><path d="M 0 0 L 10 5 L 0 10 z" class="arrowheadPath" style="stroke-width: 1; stroke-dasharray: 1, 0;"></path></marker></defs></g><g class="edgePath LS-e1.js LE-c1.js" id="L-e1.js-c1.js" style="opacity: 1;"><path class="path" d="M371.0703125,304.5L375.6497395833333,304.5C380.2291666666667,304.5,389.3880208333333,304.5,398.2174479166667,303.6945513769618C407.046875,302.8891027539236,415.546875,301.2782055078472,419.796875,300.47275688480903L424.046875,299.6673082617708" marker-end="url(#arrowhead61)" style="fill:none"></path><defs><marker id="arrowhead61" viewBox="0 0 10 10" refX="9" refY="5" markerUnits="strokeWidth" markerWidth="8" markerHeight="6" orient="auto"><path d="M 0 0 L 10 5 L 0 10 z" class="arrowheadPath" style="stroke-width: 1; stroke-dasharray: 1, 0;"></path></marker></defs></g></g><g class="edgeLabels"><g class="edgeLabel" transform="" style="opacity: 1;"><g transform="translate(0,0)" class="label"><rect rx="0" ry="0" width="0" height="0"></rect><text><tspan xml:space="preserve" dy="1em" x="1"></tspan></text></g></g><g class="edgeLabel" transform="" style="opacity: 1;"><g transform="translate(0,0)" class="label"><rect rx="0" ry="0" width="0" height="0"></rect><text><tspan xml:space="preserve" dy="1em" x="1"></tspan></text></g></g><g class="edgeLabel" transform="" style="opacity: 1;"><g transform="translate(0,0)" class="label"><rect rx="0" ry="0" width="0" height="0"></rect><text><tspan xml:space="preserve" dy="1em" x="1"></tspan></text></g></g><g class="edgeLabel" transform="" style="opacity: 1;"><g transform="translate(0,0)" class="label"><rect rx="0" ry="0" width="0" height="0"></rect><text><tspan xml:space="preserve" dy="1em" x="1"></tspan></text></g></g><g class="edgeLabel" transform="" style="opacity: 1;"><g transform="translate(0,0)" class="label"><rect rx="0" ry="0" width="0" height="0"></rect><text><tspan xml:space="preserve" dy="1em" x="1"></tspan></text></g></g><g class="edgeLabel" transform="" style="opacity: 1;"><g transform="translate(0,0)" class="label"><rect rx="0" ry="0" width="0" height="0"></rect><text><tspan xml:space="preserve" dy="1em" x="1"></tspan></text></g></g><g class="edgeLabel" transform="" style="opacity: 1;"><g transform="translate(0,0)" class="label"><rect rx="0" ry="0" width="0" height="0"></rect><text><tspan xml:space="preserve" dy="1em" x="1"></tspan></text></g></g><g class="edgeLabel" transform="" style="opacity: 1;"><g transform="translate(0,0)" class="label"><rect rx="0" ry="0" width="0" height="0"></rect><text><tspan xml:space="preserve" dy="1em" x="1"></tspan></text></g></g><g class="edgeLabel" transform="" style="opacity: 1;"><g transform="translate(0,0)" class="label"><rect rx="0" ry="0" width="0" height="0"></rect><text><tspan xml:space="preserve" dy="1em" x="1"></tspan></text></g></g><g class="edgeLabel" transform="" style="opacity: 1;"><g transform="translate(0,0)" class="label"><rect rx="0" ry="0" width="0" height="0"></rect><text><tspan xml:space="preserve" dy="1em" x="1"></tspan></text></g></g><g class="edgeLabel" transform="" style="opacity: 1;"><g transform="translate(0,0)" class="label"><rect rx="0" ry="0" width="0" height="0"></rect><text><tspan xml:space="preserve" dy="1em" x="1"></tspan></text></g></g><g class="edgeLabel" transform="" style="opacity: 1;"><g transform="translate(0,0)" class="label"><rect rx="0" ry="0" width="0" height="0"></rect><text><tspan xml:space="preserve" dy="1em" x="1"></tspan></text></g></g><g class="edgeLabel" transform="" style="opacity: 1;"><g transform="translate(0,0)" class="label"><rect rx="0" ry="0" width="0" height="0"></rect><text><tspan xml:space="preserve" dy="1em" x="1"></tspan></text></g></g><g class="edgeLabel" transform="" style="opacity: 1;"><g transform="translate(0,0)" class="label"><rect rx="0" ry="0" width="0" height="0"></rect><text><tspan xml:space="preserve" dy="1em" x="1"></tspan></text></g></g><g class="edgeLabel" transform="" style="opacity: 1;"><g transform="translate(0,0)" class="label"><rect rx="0" ry="0" width="0" height="0"></rect><text><tspan xml:space="preserve" dy="1em" x="1"></tspan></text></g></g><g class="edgeLabel" transform="" style="opacity: 1;"><g transform="translate(0,0)" class="label"><rect rx="0" ry="0" width="0" height="0"></rect><text><tspan xml:space="preserve" dy="1em" x="1"></tspan></text></g></g><g class="edgeLabel" transform="" style="opacity: 1;"><g transform="translate(0,0)" class="label"><rect rx="0" ry="0" width="0" height="0"></rect><text><tspan xml:space="preserve" dy="1em" x="1"></tspan></text></g></g><g class="edgeLabel" transform="" style="opacity: 1;"><g transform="translate(0,0)" class="label"><rect rx="0" ry="0" width="0" height="0"></rect><text><tspan xml:space="preserve" dy="1em" x="1"></tspan></text></g></g></g><g class="nodes"><g class="node default" id="flowchart-main1.html-36" transform="translate(59.3125,215.5)" style="opacity: 1;"><rect rx="0" ry="0" x="-51.3125" y="-19.5" width="102.625" height="39" class="label-container"></rect><g class="label" transform="translate(0,0)"><g transform="translate(-41.3125,-9.5)"><text style=""><tspan xml:space="preserve" dy="1em" x="1">main1.html</tspan></text></g></g></g><g class="node default" id="flowchart-a1.js-37" transform="translate(211.9375,72)" style="opacity: 1;"><rect rx="0" ry="0" x="-27.5078125" y="-19.5" width="55.015625" height="39" class="label-container"></rect><g class="label" transform="translate(0,0)"><g transform="translate(-17.5078125,-9.5)"><text style=""><tspan xml:space="preserve" dy="1em" x="1">a1.js</tspan></text></g></g></g><g class="node default" id="flowchart-a.png-39" transform="translate(211.9375,215.5)" style="opacity: 1;"><rect rx="0" ry="0" x="-29.984375" y="-19.5" width="59.96875" height="39" class="label-container"></rect><g class="label" transform="translate(0,0)"><g transform="translate(-19.984375,-9.5)"><text style=""><tspan xml:space="preserve" dy="1em" x="1">a.png</tspan></text></g></g></g><g class="node default" id="flowchart-a.css-41" transform="translate(211.9375,304.5)" style="opacity: 1;"><rect rx="0" ry="0" x="-27.578125" y="-19.5" width="55.15625" height="39" class="label-container"></rect><g class="label" transform="translate(0,0)"><g transform="translate(-17.578125,-9.5)"><text style=""><tspan xml:space="preserve" dy="1em" x="1">a.css</tspan></text></g></g></g><g class="node default" id="flowchart-a2.js-43" transform="translate(343.3984375,27.5)" style="opacity: 1;"><rect rx="0" ry="0" x="-27.5078125" y="-19.5" width="55.015625" height="39" class="label-container"></rect><g class="label" transform="translate(0,0)"><g transform="translate(-17.5078125,-9.5)"><text style=""><tspan xml:space="preserve" dy="1em" x="1">a2.js</tspan></text></g></g></g><g class="node default" id="flowchart-a3.js-45" transform="translate(343.3984375,116.5)" style="opacity: 1;"><rect rx="0" ry="0" x="-27.5078125" y="-19.5" width="55.015625" height="39" class="label-container"></rect><g class="label" transform="translate(0,0)"><g transform="translate(-17.5078125,-9.5)"><text style=""><tspan xml:space="preserve" dy="1em" x="1">a3.js</tspan></text></g></g></g><g class="node default" id="flowchart-b1.js-47" transform="translate(451.3125,116.5)" style="opacity: 1;"><rect rx="0" ry="0" x="-27.765625" y="-19.5" width="55.53125" height="39" class="label-container"></rect><g class="label" transform="translate(0,0)"><g transform="translate(-17.765625,-9.5)"><text style=""><tspan xml:space="preserve" dy="1em" x="1">b1.js</tspan></text></g></g></g><g class="node default" id="flowchart-b2.js-49" transform="translate(556.84375,72)" style="opacity: 1;"><rect rx="0" ry="0" x="-27.765625" y="-19.5" width="55.53125" height="39" class="label-container"></rect><g class="label" transform="translate(0,0)"><g transform="translate(-17.765625,-9.5)"><text style=""><tspan xml:space="preserve" dy="1em" x="1">b2.js</tspan></text></g></g></g><g class="node default" id="flowchart-b3.js-51" transform="translate(556.84375,161)" style="opacity: 1;"><rect rx="0" ry="0" x="-27.765625" y="-19.5" width="55.53125" height="39" class="label-container"></rect><g class="label" transform="translate(0,0)"><g transform="translate(-17.765625,-9.5)"><text style=""><tspan xml:space="preserve" dy="1em" x="1">b3.js</tspan></text></g></g></g><g class="node default" id="flowchart-c1.js-53" transform="translate(451.3125,294.5)" style="opacity: 1;"><rect rx="0" ry="0" x="-27.265625" y="-19.5" width="54.53125" height="39" class="label-container"></rect><g class="label" transform="translate(0,0)"><g transform="translate(-17.265625,-9.5)"><text style=""><tspan xml:space="preserve" dy="1em" x="1">c1.js</tspan></text></g></g></g><g class="node default" id="flowchart-c2.js-55" transform="translate(556.84375,250)" style="opacity: 1;"><rect rx="0" ry="0" x="-27.265625" y="-19.5" width="54.53125" height="39" class="label-container"></rect><g class="label" transform="translate(0,0)"><g transform="translate(-17.265625,-9.5)"><text style=""><tspan xml:space="preserve" dy="1em" x="1">c2.js</tspan></text></g></g></g><g class="node default" id="flowchart-c3.js-57" transform="translate(556.84375,339)" style="opacity: 1;"><rect rx="0" ry="0" x="-27.265625" y="-19.5" width="54.53125" height="39" class="label-container"></rect><g class="label" transform="translate(0,0)"><g transform="translate(-17.265625,-9.5)"><text style=""><tspan xml:space="preserve" dy="1em" x="1">c3.js</tspan></text></g></g></g><g class="node default" id="flowchart-d1.js-59" transform="translate(662.375,250)" style="opacity: 1;"><rect rx="0" ry="0" x="-27.765625" y="-19.5" width="55.53125" height="39" class="label-container"></rect><g class="label" transform="translate(0,0)"><g transform="translate(-17.765625,-9.5)"><text style=""><tspan xml:space="preserve" dy="1em" x="1">d1.js</tspan></text></g></g></g><g class="node default" id="flowchart-d2.js-61" transform="translate(767.90625,205.5)" style="opacity: 1;"><rect rx="0" ry="0" x="-27.765625" y="-19.5" width="55.53125" height="39" class="label-container"></rect><g class="label" transform="translate(0,0)"><g transform="translate(-17.765625,-9.5)"><text style=""><tspan xml:space="preserve" dy="1em" x="1">d2.js</tspan></text></g></g></g><g class="node default" id="flowchart-d3.js-63" transform="translate(767.90625,294.5)" style="opacity: 1;"><rect rx="0" ry="0" x="-27.765625" y="-19.5" width="55.53125" height="39" class="label-container"></rect><g class="label" transform="translate(0,0)"><g transform="translate(-17.765625,-9.5)"><text style=""><tspan xml:space="preserve" dy="1em" x="1">d3.js</tspan></text></g></g></g><g class="node default" id="flowchart-main2.html-64" transform="translate(211.9375,393.5)" style="opacity: 1;"><rect rx="0" ry="0" x="-51.3125" y="-19.5" width="102.625" height="39" class="label-container"></rect><g class="label" transform="translate(0,0)"><g transform="translate(-41.3125,-9.5)"><text style=""><tspan xml:space="preserve" dy="1em" x="1">main2.html</tspan></text></g></g></g><g class="node default" id="flowchart-e1.js-65" transform="translate(343.3984375,304.5)" style="opacity: 1;"><rect rx="0" ry="0" x="-27.671875" y="-19.5" width="55.34375" height="39" class="label-container"></rect><g class="label" transform="translate(0,0)"><g transform="translate(-17.671875,-9.5)"><text style=""><tspan xml:space="preserve" dy="1em" x="1">e1.js</tspan></text></g></g></g><g class="node default" id="flowchart-e.css-67" transform="translate(343.3984375,393.5)" style="opacity: 1;"><rect rx="0" ry="0" x="-27.7421875" y="-19.5" width="55.484375" height="39" class="label-container"></rect><g class="label" transform="translate(0,0)"><g transform="translate(-17.7421875,-9.5)"><text style=""><tspan xml:space="preserve" dy="1em" x="1">e.css</tspan></text></g></g></g><g class="node default" id="flowchart-e.png-69" transform="translate(343.3984375,482.5)" style="opacity: 1;"><rect rx="0" ry="0" x="-30.1484375" y="-19.5" width="60.296875" height="39" class="label-container"></rect><g class="label" transform="translate(0,0)"><g transform="translate(-20.1484375,-9.5)"><text style=""><tspan xml:space="preserve" dy="1em" x="1">e.png</tspan></text></g></g></g></g></g></g></svg>