<svg id="mermaid-1638268101009" width="366.875" xmlns="http://www.w3.org/2000/svg" xmlns:xlink="http://www.w3.org/1999/xlink" height="243" viewBox="0 0 366.875 243"><style>#mermaid-1638268101009{font-family:"trebuchet ms",verdana,arial,sans-serif;font-size:16px;fill:#ccc;}#mermaid-1638268101009 .error-icon{fill:#a44141;}#mermaid-1638268101009 .error-text{fill:#ddd;stroke:#ddd;}#mermaid-1638268101009 .edge-thickness-normal{stroke-width:2px;}#mermaid-1638268101009 .edge-thickness-thick{stroke-width:3.5px;}#mermaid-1638268101009 .edge-pattern-solid{stroke-dasharray:0;}#mermaid-1638268101009 .edge-pattern-dashed{stroke-dasharray:3;}#mermaid-1638268101009 .edge-pattern-dotted{stroke-dasharray:2;}#mermaid-1638268101009 .marker{fill:lightgrey;stroke:lightgrey;}#mermaid-1638268101009 .marker.cross{stroke:lightgrey;}#mermaid-1638268101009 svg{font-family:"trebuchet ms",verdana,arial,sans-serif;font-size:16px;}#mermaid-1638268101009 .label{font-family:"trebuchet ms",verdana,arial,sans-serif;color:#ccc;}#mermaid-1638268101009 .cluster-label text{fill:#F9FFFE;}#mermaid-1638268101009 .cluster-label span{color:#F9FFFE;}#mermaid-1638268101009 .label text,#mermaid-1638268101009 span{fill:#ccc;color:#ccc;}#mermaid-1638268101009 .node rect,#mermaid-1638268101009 .node circle,#mermaid-1638268101009 .node ellipse,#mermaid-1638268101009 .node polygon,#mermaid-1638268101009 .node path{fill:#1f2020;stroke:#81B1DB;stroke-width:1px;}#mermaid-1638268101009 .node .label{text-align:center;}#mermaid-1638268101009 .node.clickable{cursor:pointer;}#mermaid-1638268101009 .arrowheadPath{fill:lightgrey;}#mermaid-1638268101009 .edgePath .path{stroke:lightgrey;stroke-width:1.5px;}#mermaid-1638268101009 .flowchart-link{stroke:lightgrey;fill:none;}#mermaid-1638268101009 .edgeLabel{background-color:hsl(0,0%,34.4117647059%);text-align:center;}#mermaid-1638268101009 .edgeLabel rect{opacity:0.5;background-color:hsl(0,0%,34.4117647059%);fill:hsl(0,0%,34.4117647059%);}#mermaid-1638268101009 .cluster rect{fill:hsl(180,1.5873015873%,28.3529411765%);stroke:rgba(255,255,255,0.25);stroke-width:1px;}#mermaid-1638268101009 .cluster text{fill:#F9FFFE;}#mermaid-1638268101009 .cluster span{color:#F9FFFE;}#mermaid-1638268101009 div.mermaidTooltip{position:absolute;text-align:center;max-width:200px;padding:2px;font-family:"trebuchet ms",verdana,arial,sans-serif;font-size:12px;background:hsl(20,1.5873015873%,12.3529411765%);border:1px solid rgba(255,255,255,0.25);border-radius:2px;pointer-events:none;z-index:100;}#mermaid-1638268101009:root{--mermaid-font-family:"trebuchet ms",verdana,arial,sans-serif;}</style><g><g class="output"><g class="clusters"></g><g class="edgePaths"><g class="edgePath LS-A LE-B" id="L-A-B" style="opacity: 1;"><path class="path" d="M38,33.75L42.166666666666664,32.708333333333336C46.333333333333336,31.666666666666668,54.666666666666664,29.583333333333332,63.04296875,28.541666666666668C71.41927083333333,27.5,79.83854166666667,27.5,84.04817708333333,27.5L88.2578125,27.5" marker-end="url(#arrowhead26)" style="fill:none"></path><defs><marker id="arrowhead26" viewBox="0 0 10 10" refX="9" refY="5" markerUnits="strokeWidth" markerWidth="8" markerHeight="6" orient="auto"><path d="M 0 0 L 10 5 L 0 10 z" class="arrowheadPath" style="stroke-width: 1; stroke-dasharray: 1, 0;"></path></marker></defs></g><g class="edgePath LS-A LE-C" id="L-A-C" style="opacity: 1;"><path class="path" d="M38,54.1875L42.166666666666664,58.822916666666664C46.333333333333336,63.458333333333336,54.666666666666664,72.72916666666667,63,82.02457417043C71.33333333333333,91.31998167419334,79.66666666666667,100.63996334838669,83.83333333333333,105.29995418548334L88,109.95994502258002" marker-end="url(#arrowhead27)" style="fill:none"></path><defs><marker id="arrowhead27" viewBox="0 0 10 10" refX="9" refY="5" markerUnits="strokeWidth" markerWidth="8" markerHeight="6" orient="auto"><path d="M 0 0 L 10 5 L 0 10 z" class="arrowheadPath" style="stroke-width: 1; stroke-dasharray: 1, 0;"></path></marker></defs></g><g class="edgePath LS-C LE-D" id="L-C-D" style="opacity: 1;"><path class="path" d="M117.578125,109.95994502258002L121.74479166666667,105.29995418548334C125.91145833333333,100.63996334838669,134.24479166666666,91.31998167419334,142.578125,86.65999083709669C150.91145833333334,82,159.24479166666666,82,163.41145833333334,82L167.578125,82" marker-end="url(#arrowhead28)" style="fill:none"></path><defs><marker id="arrowhead28" viewBox="0 0 10 10" refX="9" refY="5" markerUnits="strokeWidth" markerWidth="8" markerHeight="6" orient="auto"><path d="M 0 0 L 10 5 L 0 10 z" class="arrowheadPath" style="stroke-width: 1; stroke-dasharray: 1, 0;"></path></marker></defs></g><g class="edgePath LS-E LE-C" id="L-E-C" style="opacity: 1;"><path class="path" d="M37.5,136.5L41.75,136.5C46,136.5,54.5,136.5,62.916666666666664,135.45281104784343C71.33333333333333,134.40562209568688,79.66666666666667,132.3112441913738,83.83333333333333,131.2640552392172L88,130.21686628706067" marker-end="url(#arrowhead29)" style="fill:none"></path><defs><marker id="arrowhead29" viewBox="0 0 10 10" refX="9" refY="5" markerUnits="strokeWidth" markerWidth="8" markerHeight="6" orient="auto"><path d="M 0 0 L 10 5 L 0 10 z" class="arrowheadPath" style="stroke-width: 1; stroke-dasharray: 1, 0;"></path></marker></defs></g><g class="edgePath LS-C LE-F" id="L-C-F" style="opacity: 1;"><path class="path" d="M117.578125,143.04005497742L121.74479166666667,147.70004581451667C125.91145833333333,152.36003665161334,134.24479166666666,161.68001832580669,142.66145833333334,166.34000916290333C151.078125,171,159.578125,171,163.828125,171L168.078125,171" marker-end="url(#arrowhead30)" style="fill:none"></path><defs><marker id="arrowhead30" viewBox="0 0 10 10" refX="9" refY="5" markerUnits="strokeWidth" markerWidth="8" markerHeight="6" orient="auto"><path d="M 0 0 L 10 5 L 0 10 z" class="arrowheadPath" style="stroke-width: 1; stroke-dasharray: 1, 0;"></path></marker></defs></g><g class="edgePath LS-F LE-G" id="L-F-G" style="opacity: 1;"><path class="path" d="M197.078125,154.86875L201.328125,150.140625C205.578125,145.4125,214.078125,135.95624999999998,222.49479166666666,131.228125C230.91145833333334,126.5,239.24479166666666,126.5,243.41145833333334,126.5L247.578125,126.5" marker-end="url(#arrowhead31)" style="fill:none"></path><defs><marker id="arrowhead31" viewBox="0 0 10 10" refX="9" refY="5" markerUnits="strokeWidth" markerWidth="8" markerHeight="6" orient="auto"><path d="M 0 0 L 10 5 L 0 10 z" class="arrowheadPath" style="stroke-width: 1; stroke-dasharray: 1, 0;"></path></marker></defs></g><g class="edgePath LS-F LE-I" id="L-F-I" style="opacity: 1;"><path class="path" d="M197.078125,187.13125L201.328125,191.859375C205.578125,196.5875,214.078125,206.04375000000002,223.02604166666666,210.771875C231.97395833333334,215.5,241.36979166666666,215.5,246.06770833333334,215.5L250.765625,215.5" marker-end="url(#arrowhead32)" style="fill:none"></path><defs><marker id="arrowhead32" viewBox="0 0 10 10" refX="9" refY="5" markerUnits="strokeWidth" markerWidth="8" markerHeight="6" orient="auto"><path d="M 0 0 L 10 5 L 0 10 z" class="arrowheadPath" style="stroke-width: 1; stroke-dasharray: 1, 0;"></path></marker></defs></g><g class="edgePath LS-G LE-H" id="L-G-H" style="opacity: 1;"><path class="path" d="M278.40625,126.5L282.5729166666667,126.5C286.7395833333333,126.5,295.0729166666667,126.5,303.40625,126.5C311.7395833333333,126.5,320.0729166666667,126.5,324.2395833333333,126.5L328.40625,126.5" marker-end="url(#arrowhead33)" style="fill:none"></path><defs><marker id="arrowhead33" viewBox="0 0 10 10" refX="9" refY="5" markerUnits="strokeWidth" markerWidth="8" markerHeight="6" orient="auto"><path d="M 0 0 L 10 5 L 0 10 z" class="arrowheadPath" style="stroke-width: 1; stroke-dasharray: 1, 0;"></path></marker></defs></g></g><g class="edgeLabels"><g class="edgeLabel" transform="" style="opacity: 1;"><g transform="translate(0,0)" class="label"><rect rx="0" ry="0" width="0" height="0"></rect><text><tspan xml:space="preserve" dy="1em" x="1"></tspan></text></g></g><g class="edgeLabel" transform="" style="opacity: 1;"><g transform="translate(0,0)" class="label"><rect rx="0" ry="0" width="0" height="0"></rect><text><tspan xml:space="preserve" dy="1em" x="1"></tspan></text></g></g><g class="edgeLabel" transform="" style="opacity: 1;"><g transform="translate(0,0)" class="label"><rect rx="0" ry="0" width="0" height="0"></rect><text><tspan xml:space="preserve" dy="1em" x="1"></tspan></text></g></g><g class="edgeLabel" transform="" style="opacity: 1;"><g transform="translate(0,0)" class="label"><rect rx="0" ry="0" width="0" height="0"></rect><text><tspan xml:space="preserve" dy="1em" x="1"></tspan></text></g></g><g class="edgeLabel" transform="" style="opacity: 1;"><g transform="translate(0,0)" class="label"><rect rx="0" ry="0" width="0" height="0"></rect><text><tspan xml:space="preserve" dy="1em" x="1"></tspan></text></g></g><g class="edgeLabel" transform="" style="opacity: 1;"><g transform="translate(0,0)" class="label"><rect rx="0" ry="0" width="0" height="0"></rect><text><tspan xml:space="preserve" dy="1em" x="1"></tspan></text></g></g><g class="edgeLabel" transform="" style="opacity: 1;"><g transform="translate(0,0)" class="label"><rect rx="0" ry="0" width="0" height="0"></rect><text><tspan xml:space="preserve" dy="1em" x="1"></tspan></text></g></g><g class="edgeLabel" transform="" style="opacity: 1;"><g transform="translate(0,0)" class="label"><rect rx="0" ry="0" width="0" height="0"></rect><text><tspan xml:space="preserve" dy="1em" x="1"></tspan></text></g></g></g><g class="nodes"><g class="node default" id="flowchart-A-16" transform="translate(23,37.5)" style="opacity: 1;"><rect rx="0" ry="0" x="-15" y="-19.5" width="30" height="39" class="label-container"></rect><g class="label" transform="translate(0,0)"><g transform="translate(-5,-9.5)"><text style=""><tspan xml:space="preserve" dy="1em" x="1">A</tspan></text></g></g></g><g class="node default" id="flowchart-B-17" transform="translate(102.7890625,27.5)" style="opacity: 1;"><rect rx="0" ry="0" x="-14.53125" y="-19.5" width="29.0625" height="39" class="label-container"></rect><g class="label" transform="translate(0,0)"><g transform="translate(-4.53125,-9.5)"><text style=""><tspan xml:space="preserve" dy="1em" x="1">B</tspan></text></g></g></g><g class="node default" id="flowchart-C-19" transform="translate(102.7890625,126.5)" style="opacity: 1;"><rect rx="0" ry="0" x="-14.7890625" y="-19.5" width="29.578125" height="39" class="label-container"></rect><g class="label" transform="translate(0,0)"><g transform="translate(-4.7890625,-9.5)"><text style=""><tspan xml:space="preserve" dy="1em" x="1">C</tspan></text></g></g></g><g class="node default" id="flowchart-D-21" transform="translate(182.578125,82)" style="opacity: 1;"><rect rx="0" ry="0" x="-15" y="-19.5" width="30" height="39" class="label-container"></rect><g class="label" transform="translate(0,0)"><g transform="translate(-5,-9.5)"><text style=""><tspan xml:space="preserve" dy="1em" x="1">D</tspan></text></g></g></g><g class="node default" id="flowchart-E-22" transform="translate(23,136.5)" style="opacity: 1;"><rect rx="0" ry="0" x="-14.5" y="-19.5" width="29" height="39" class="label-container"></rect><g class="label" transform="translate(0,0)"><g transform="translate(-4.5,-9.5)"><text style=""><tspan xml:space="preserve" dy="1em" x="1">E</tspan></text></g></g></g><g class="node default" id="flowchart-F-25" transform="translate(182.578125,171)" style="opacity: 1;"><rect rx="0" ry="0" x="-14.5" y="-19.5" width="29" height="39" class="label-container"></rect><g class="label" transform="translate(0,0)"><g transform="translate(-4.5,-9.5)"><text style=""><tspan xml:space="preserve" dy="1em" x="1">F</tspan></text></g></g></g><g class="node default" id="flowchart-G-27" transform="translate(262.9921875,126.5)" style="opacity: 1;"><rect rx="0" ry="0" x="-15.4140625" y="-19.5" width="30.828125" height="39" class="label-container"></rect><g class="label" transform="translate(0,0)"><g transform="translate(-5.4140625,-9.5)"><text style=""><tspan xml:space="preserve" dy="1em" x="1">G</tspan></text></g></g></g><g class="node default" id="flowchart-I-29" transform="translate(262.9921875,215.5)" style="opacity: 1;"><rect rx="0" ry="0" x="-12.2265625" y="-19.5" width="24.453125" height="39" class="label-container"></rect><g class="label" transform="translate(0,0)"><g transform="translate(-2.2265625,-9.5)"><text style=""><tspan xml:space="preserve" dy="1em" x="1">I</tspan></text></g></g></g><g class="node default" id="flowchart-H-31" transform="translate(343.640625,126.5)" style="opacity: 1;"><rect rx="0" ry="0" x="-15.234375" y="-19.5" width="30.46875" height="39" class="label-container"></rect><g class="label" transform="translate(0,0)"><g transform="translate(-5.234375,-9.5)"><text style=""><tspan xml:space="preserve" dy="1em" x="1">H</tspan></text></g></g></g></g></g></g></svg>